<svg xmlns="http://www.w3.org/2000/svg" width="1200" height="800" viewBox="0 0 1200 800">
  <defs>
    <linearGradient id="bg" x1="0" y1="0" x2="1" y2="1">
      <stop offset="0" stop-color="#0c0a09"/>
      <stop offset="1" stop-color="#3f3f46"/>
    </linearGradient>
    <radialGradient id="glow" cx="0.5" cy="0.5" r="0.5">
      <stop offset="0" stop-color="#fb7185" stop-opacity="0.35"/>
      <stop offset="1" stop-color="#fb7185" stop-opacity="0"/>
    </radialGradient>
  </defs>
  <rect width="1200" height="800" fill="url(#bg)"/>
  <circle cx="600" cy="360" r="408" fill="url(#glow)"/>
  <circle cx="600" cy="360" r="240" fill="#0a0f1a" stroke="#475569" stroke-width="14.399999999999999"/>
  <circle cx="600" cy="360" r="172.79999999999998" fill="#111827"/>
  <circle cx="600" cy="360" r="172.79999999999998" fill="none" stroke="#fb7185" stroke-width="12"/>
  <g><line x1="600" y1="360" x2="800" y2="360" stroke="#fb7185" stroke-width="21.599999999999998" stroke-linecap="round" opacity="0.9"/><line x1="600" y1="360" x2="761.8033988749895" y2="477.55705045849464" stroke="#fb7185" stroke-width="21.599999999999998" stroke-linecap="round" opacity="0.9"/><line x1="600" y1="360" x2="661.8033988749895" y2="550.2113032590307" stroke="#fb7185" stroke-width="21.599999999999998" stroke-linecap="round" opacity="0.9"/><line x1="600" y1="360" x2="538.1966011250105" y2="550.2113032590307" stroke="#fb7185" stroke-width="21.599999999999998" stroke-linecap="round" opacity="0.9"/><line x1="600" y1="360" x2="438.19660112501055" y2="477.55705045849464" stroke="#fb7185" stroke-width="21.599999999999998" stroke-linecap="round" opacity="0.9"/><line x1="600" y1="360" x2="400" y2="360" stroke="#fb7185" stroke-width="21.599999999999998" stroke-linecap="round" opacity="0.9"/><line x1="600" y1="360" x2="438.1966011250105" y2="242.4429495415054" stroke="#fb7185" stroke-width="21.599999999999998" stroke-linecap="round" opacity="0.9"/><line x1="600" y1="360" x2="538.1966011250105" y2="169.7886967409693" stroke="#fb7185" stroke-width="21.599999999999998" stroke-linecap="round" opacity="0.9"/><line x1="600" y1="360" x2="661.8033988749894" y2="169.78869674096927" stroke="#fb7185" stroke-width="21.599999999999998" stroke-linecap="round" opacity="0.9"/><line x1="600" y1="360" x2="761.8033988749894" y2="242.44294954150533" stroke="#fb7185" stroke-width="21.599999999999998" stroke-linecap="round" opacity="0.9"/></g>
  <circle cx="600" cy="360" r="62.400000000000006" fill="#1f2937" stroke="#fb7185" stroke-width="12"/>
  <circle cx="600" cy="360" r="24" fill="#fb7185"/>
  <text x="600" y="704" text-anchor="middle" font-family="Segoe UI, Helvetica, Arial, sans-serif" font-size="62.4" font-weight="700" fill="#f8fafc">Jant Kapagı Bakımı ve Temizliği</text>
  <text x="600" y="752" text-anchor="middle" font-family="Segoe UI, Helvetica, Arial, sans-serif" font-size="36" fill="#94a3b8">5 Pratik İpucu</text>
</svg>